{"title":"Katy Perry - Roar (Official) 1080p","uid":8886157,"size":198068117,"categoryP":"video","categoryS":"music_videos","magnet":"?xt=urn:btih:ca4696f70f3f3db2b550524ef0ababa1d4416e9f&amp;dn=Katy+Perry+-+Roar+%28Official%29+1080p&amp;tr=udp%3A%2F%2Ftracker.openbittorrent.com%3A80&amp;tr=udp%3A%2F%2Fopen.demonii.com%3A1337&amp;tr=udp%3A%2F%2Ftracker.coppersurfer.tk%3A6969&amp;tr=udp%3A%2F%2Fexodus.desync.com%3A6969","seeders":1,"leechers":0,"uploader":"deejayabc","files":-1,"time":1378467394,"description":"Keep Seeding!!=))\n\n\nVideo \nID : 1 \nFormat : AVC \nFormat/Info : Advanced Video Codec \nFormat profile : &lt;a class=&quot;__cf_email__&quot; href=&quot;/cdn-cgi/l/email-protection&quot; data-cfemail=&quot;2068494748606c140e10&quot;&gt;[email&amp;#160;protected]&lt;/a&gt;&lt;script cf-hash='f9e31' type=&quot;text/javascript&quot;&gt;\n/* &lt;![CDATA[ */!function(){try{var t=&quot;currentScript&quot;in document?document.currentScript:function(){for(var t=document.getElementsByTagName(&quot;script&quot;),e=t.length;e--;)if(t[e].getAttribute(&quot;cf-hash&quot;))return t[e]}();if(t&amp;&amp;t.previousSibling){var e,r,n,i,c=t.previousSibling,a=c.getAttribute(&quot;data-cfemail&quot;);if(a){for(e=&quot;&quot;,r=parseInt(a.substr(0,2),16),n=2;a.length-n;n+=2)i=parseInt(a.substr(n,2),16)^r,e+=String.fromCharCode(i);e=document.createTextNode(e),c.parentNode.replaceChild(e,c)}}}catch(u){}}();/* ]]&gt; */&lt;/script&gt; \nFormat settings, CABAC : Yes \nFormat settings, ReFrames : 1 frame \nCodec ID : avc1 \nCodec ID/Info : Advanced Video Coding \nDuration : 4mn 29s \nBit rate : 5 694 Kbps \nMaximum bit rate : 13.3 Mbps \nWidth : 1 920 pixels \nHeight : 1 080 pixels \nDisplay aspect ratio : 16:9 \nFrame rate mode : Constant \nFrame rate : 23.976 fps \nColor space : YUV \nChroma subsampling : 4:2:0 \nBit depth : 8 bits \nScan type : Progressive \nBits/(Pixel*Frame) : 0.115 \nStream size : 183 MiB (97%) \nTagged date : UTC 2013-09-04 18:44:03 \n\nAudio \nID : 2 \nFormat : AAC \nFormat/Info : Advanced Audio Codec \nFormat profile : LC \nCodec ID : 40 \nDuration : 4mn 29s \nBit rate mode : Variable \nBit rate : 192 Kbps \nMaximum bit rate : 202 Kbps \nChannel(s) : 2 channels \nChannel positions : Front: L R \nSampling rate : 44.1 KHz \nCompression mode : Lossy \nStream size : 6.16 MiB (3%) \nTitle : IsoMedia File Produced by Google, 5-11-2011 \nEncoded date : UTC 2013-09-04 18:43:43 \nTagged date : UTC 2013-09-04 18:44:03 \n","torrent":{"xt":"urn:btih:ca4696f70f3f3db2b550524ef0ababa1d4416e9f","amp;dn":"Katy+Perry+-+Roar+%28Official%29+1080p","amp;tr":["udp%3A%2F%2Ftracker.openbittorrent.com%3A80","udp%3A%2F%2Fopen.demonii.com%3A1337","udp%3A%2F%2Ftracker.coppersurfer.tk%3A6969","udp%3A%2F%2Fexodus.desync.com%3A6969"],"infoHash":"ca4696f70f3f3db2b550524ef0ababa1d4416e9f","infoHashBuffer":{"type":"Buffer","data":[202,70,150,247,15,63,61,178,181,80,82,78,240,171,171,161,212,65,110,159]},"announce":[],"urlList":[]}}